<svg xmlns="http://www.w3.org/2000/svg" width="264" height="71" viewBox="0 0 264 71" version="1.0">
  <g fill="#4d8af0">
    <g transform="translate(1.270769, 55.539348)">
      <path d="M 42.921875 -0.84375 C 42.691406 -0.5625 42.390625 -0.382812 42.015625 -0.3125 C 41.640625 -0.238281 41.265625 -0.203125 40.890625 -0.203125 C 34.671875 -0.296875 28.425781 -0.410156 22.15625 -0.546875 C 15.894531 -0.691406 9.65625 -0.53125 3.4375 -0.0625 C 2.175781 0.0195312 1.285156 -0.203125 0.765625 -0.734375 C 0.253906 -1.273438 0.0078125 -1.988281 0.03125 -2.875 C 0.0507812 -3.757812 0.179688 -4.71875 0.421875 -5.75 C 0.890625 -7.382812 1.632812 -8.90625 2.65625 -10.3125 C 3.6875 -11.71875 4.71875 -13.070312 5.75 -14.375 C 7.4375 -16.570312 9.164062 -18.710938 10.9375 -20.796875 C 12.71875 -22.878906 14.472656 -24.992188 16.203125 -27.140625 C 17.554688 -28.828125 18.875 -30.535156 20.15625 -32.265625 C 21.445312 -33.992188 22.722656 -35.722656 23.984375 -37.453125 C 24.410156 -38.054688 24.820312 -38.742188 25.21875 -39.515625 C 25.613281 -40.296875 25.738281 -40.988281 25.59375 -41.59375 C 25.457031 -42.195312 24.734375 -42.5 23.421875 -42.5 C 20.242188 -42.5 17.050781 -42.519531 13.84375 -42.5625 C 10.644531 -42.613281 7.457031 -42.570312 4.28125 -42.4375 C 4.1875 -42.4375 4.078125 -42.421875 3.953125 -42.390625 C 3.835938 -42.367188 3.734375 -42.359375 3.640625 -42.359375 C 3.179688 -42.359375 2.691406 -42.40625 2.171875 -42.5 C 1.253906 -42.6875 0.53125 -43.140625 0 -43.859375 L 0 -44.5 C 0.355469 -45.101562 1.011719 -45.40625 1.96875 -45.40625 C 14.195312 -45.40625 26.425781 -45.40625 38.65625 -45.40625 C 39.75 -45.40625 40.53125 -45.125 41 -44.5625 C 41.46875 -44 41.714844 -43.195312 41.734375 -42.15625 C 41.753906 -41.113281 41.6875 -40.039062 41.53125 -38.9375 C 41.144531 -36.632812 40.671875 -34.335938 40.109375 -32.046875 C 39.546875 -29.753906 38.867188 -27.484375 38.0625 -25.234375 C 36.4375 -21.03125 34.65625 -16.890625 32.71875 -12.8125 C 30.78125 -8.734375 28.675781 -4.738281 26.40625 -0.828125 C 26.15625 -0.402344 25.828125 -0.117188 25.421875 0.03125 C 25.015625 0.175781 24.59375 0.226562 24.15625 0.1875 C 21.09375 -0.0625 18.042969 -0.21875 15 -0.28125 C 11.957031 -0.34375 8.917969 -0.328125 5.875 -0.234375 C 5.644531 -0.234375 5.433594 -0.265625 5.25 -0.328125 C 5.0625 -0.390625 4.90625 -0.484375 4.78125 -0.609375 C 4.542969 -0.835938 4.53125 -1.132812 4.75 -1.5 C 5.113281 -2.125 5.421875 -2.714844 5.671875 -3.265625 C 6.546875 -5.203125 7.371094 -7.15625 8.140625 -9.125 C 8.910156 -11.09375 9.605469 -13.085938 10.21875 -15.09375 C 11.394531 -18.84375 12.441406 -22.628906 13.359375 -26.453125 C 14.277344 -30.273438 15.011719 -34.113281 15.5625 -37.96875 C 15.65625 -38.65625 15.890625 -39.1875 16.265625 -39.5625 C 16.640625 -39.9375 17.15625 -40.125 17.8125 -40.125 L 23.375 -40.125 C 23.957031 -40.125 24.382812 -39.882812 24.65625 -39.40625 C 24.9375 -38.925781 24.996094 -38.316406 24.828125 -37.578125 C 23.234375 -30.339844 21.082031 -23.1875 18.375 -16.125 C 15.667969 -9.058594 12.382812 -2.121094 8.515625 4.6875 C 8.160156 5.3125 7.648438 5.625 6.984375 5.625 C 4.671875 5.625 2.359375 5.625 0.046875 5.625 Z M 42.921875 -0.84375 "/>
    </g>
    <g transform="translate(49.816923, 49.336269)">
      <path d="M 0 0.296875 C 0.09375 0.402344 0.214844 0.457031 0.359375 0.453125 C 8.816406 0.183594 17.257812 -0.136719 25.6875 -0.515625 C 34.125 -0.894531 42.546875 -1.042969 50.953125 -0.96875 C 51.101562 -0.96875 51.242188 -1.019531 51.375 -1.125 C 51.507812 -1.230469 51.574219 -1.363281 51.578125 -1.53125 L 51.578125 -1.828125 C 51.535156 -1.984375 51.445312 -2.105469 51.3125 -2.1875 C 51.1875 -2.269531 51.046875 -2.3125 50.890625 -2.3125 C 33.628906 -2.3125 16.363281 -2.3125 -0.890625 -2.3125 C -1.035156 -2.3125 -1.171875 -2.257812 -1.296875 -2.15625 C -1.414062 -2.050781 -1.472656 -1.917969 -1.46875 -1.75 L -1.46875 -1.265625 C -1.472656 -1.132812 -1.414062 -1.015625 -1.296875 -0.921875 C -1.171875 -0.816406 -1.035156 -0.765625 -0.890625 -0.765625 C 3.195312 -0.765625 7.277344 -0.667969 11.140625 -0.46875 C 15.011719 -0.277344 18.882812 -0.261719 22.75 -0.421875 C 32.222656 -0.816406 41.691406 -0.941406 51.15625 -0.796875 L 51.15625 5.515625 C 49.332031 5.378906 47.503906 5.378906 45.671875 5.515625 C 43.835938 5.660156 42.003906 5.925781 40.171875 6.3125 C 31.578125 8.164062 23 10.074219 14.4375 12.046875 C 5.875 14.027344 -2.6875 15.601562 -11.25 16.765625 C -11.457031 16.796875 -11.640625 16.910156 -11.796875 17.109375 C -11.945312 17.3125 -12.023438 17.53125 -12.03125 17.765625 L -12.03125 18.0625 C -12.015625 18.238281 -11.925781 18.378906 -11.765625 18.484375 C -11.609375 18.597656 -11.425781 18.652344 -11.21875 18.65625 C -2.394531 18.363281 6.425781 17.757812 15.25 16.84375 C 24.082031 15.9375 32.902344 14.652344 41.71875 12.984375 C 50.457031 11.347656 59.136719 9.386719 67.75 7.09375 C 76.371094 4.808594 84.921875 2.148438 93.40625 -0.890625 C 93.59375 -0.953125 93.738281 -1.066406 93.84375 -1.234375 C 93.945312 -1.402344 94 -1.585938 94.015625 -1.78125 L 94.015625 -2.078125 C 94 -2.265625 93.921875 -2.421875 93.765625 -2.546875 C 93.609375 -2.671875 93.425781 -2.734375 93.21875 -2.734375 Z"/>
    </g>
  </g>
</svg>
