<svg xmlns="http://www.w3.org/2000/svg" width="264" height="71" viewBox="48 142 264 71" version="1.0">
  <defs>
    <clipPath id="dce62ca6b4">
      <rect x="0" width="264" y="0" height="71"/>
    </clipPath>
  </defs>
  <g transform="matrix(1, 0, 0, 1, 48, 142)">
    <g clip-path="url(#dce62ca6b4)">
      <g fill="#4d8af0">
        <g transform="translate(1.270769, 55.539348)">
          <path d="M 42.921875 -0.84375 C 42.691406 -0.5625 42.390625 -0.382812 42.015625 -0.3125 C 41.640625 -0.238281 41.265625 -0.203125 40.890625 -0.203125 C 34.671875 -0.296875 28.425781 -0.410156 22.15625 -0.546875 C 15.894531 -0.691406 9.65625 -0.53125 3.4375 -0.0625 C 2.175781 0.0195312 1.285156 -0.203125 0.765625 -0.734375 C 0.253906 -1.273438 0.0078125 -1.988281 0.03125 -2.875 C 0.0507812 -3.757812 0.179688 -4.71875 0.421875 -5.75 C 0.890625 -7.382812 1.632812 -8.90625 2.65625 -10.3125 C 3.6875 -11.71875 4.71875 -13.070312 5.75 -14.375 C 7.4375 -16.570312 9.164062 -18.710938 10.9375 -20.796875 C 12.71875 -22.878906 14.472656 -24.992188 16.203125 -27.140625 C 17.554688 -28.828125 18.875 -30.535156 20.15625 -32.265625 C 21.445312 -33.992188 22.722656 -35.722656 23.984375 -37.453125 C 24.410156 -38.054688 24.820312 -38.742188 25.21875 -39.515625 C 25.613281 -40.296875 25.738281 -40.988281 25.59375 -41.59375 C 25.457031 -42.195312 24.734375 -42.5 23.421875 -42.5 C 20.242188 -42.5 17.050781 -42.519531 13.84375 -42.5625 C 10.644531 -42.613281 7.457031 -42.570312 4.28125 -42.4375 C 4.1875 -42.4375 4.078125 -42.421875 3.953125 -42.390625 C 3.835938 -42.367188 3.734375 -42.359375 3.640625 -42.359375 C 3.179688 -42.359375 2.691406 -42.40625 2.171875 -42.5 C 1.253906 -42.6875 0.53125 -43.140625 0 -43.859375 L 0 -44.5 C 0.355469 -45.101562 1.011719 -45.40625 1.96875 -45.40625 C 14.195312 -45.40625 26.425781 -45.40625 38.65625 -45.40625 C 39.75 -45.40625 40.53125 -45.125 41 -44.5625 C 41.46875 -44 41.714844 -43.195312 41.734375 -42.15625 C 41.753906 -41.113281 41.6875 -40.039062 41.53125 -38.9375 C 41.144531 -36.632812 40.671875 -34.335938 40.109375 -32.046875 C 39.546875 -29.753906 38.867188 -27.484375 38.0625 -25.234375 C 36.4375 -21.03125 34.65625 -16.890625 32.71875 -12.8125 C 30.78125 -8.734375 28.675781 -4.738281 26.40625 -0.828125 C 26.15625 -0.402344 25.828125 -0.117188 25.421875 0.03125 C 25.015625 0.175781 24.59375 0.226562 24.15625 0.1875 C 21.09375 -0.0625 18.042969 -0.21875 15 -0.28125 C 11.957031 -0.34375 8.917969 -0.328125 5.875 -0.234375 C 5.644531 -0.234375 5.433594 -0.265625 5.25 -0.328125 C 5.0625 -0.390625 4.90625 -0.484375 4.78125 -0.609375 C 4.542969 -0.835938 4.53125 -1.132812 4.75 -1.5 C 5.113281 -2.125 5.421875 -2.714844 5.671875 -3.265625 C 6.546875 -5.203125 7.371094 -7.15625 8.140625 -9.125 C 8.910156 -11.09375 9.605469 -13.085938 10.21875 -15.09375 C 11.394531 -18.84375 12.441406 -22.628906 13.359375 -26.453125 C 14.277344 -30.273438 15.011719 -34.113281 15.5625 -37.96875 C 15.65625 -38.65625 15.890625 -39.1875 16.265625 -39.5625 C 16.640625 -39.9375 17.15625 -40.125 17.8125 -40.125 L 23.375 -40.125 C 23.957031 -40.125 24.382812 -39.882812 24.65625 -39.40625 C 24.9375 -38.925781 24.996094 -38.316406 24.828125 -37.578125 C 23.234375 -30.339844 21.082031 -23.1875 18.375 -16.125 C 15.667969 -9.058594 12.382812 -2.121094 8.515625 4.6875 C 8.160156 5.3125 7.648438 5.625 6.984375 5.625 C 4.671875 5.625 2.359375 5.625 0.046875 5.625 Z M 42.921875 -0.84375 "/>
        </g>
        <g transform="translate(49.816923, 49.336269)">
          <path d="M 0 0.296875 C 0.09375 0.402344 0.214844 0.457031 0.359375 0.453125 C 8.816406 0.183594 17.257812 -0.136719 25.6875 -0.515625 C 34.125 -0.894531 42.546875 -1.042969 50.953125 -0.96875 C 51.101562 -0.96875 51.242188 -1.019531 51.375 -1.125 C 51.507812 -1.230469 51.574219 -1.363281 51.578125 -1.53125 L 51.578125 -1.828125 C 51.535156 -1.984375 51.445312 -2.105469 51.3125 -2.1875 C 51.1875 -2.269531 51.046875 -2.3125 50.890625 -2.3125 C 33.628906 -2.3125 16.363281 -2.3125 -0.890625 -2.3125 C -1.035156 -2.3125 -1.171875 -2.257812 -1.296875 -2.15625 C -1.414062 -2.050781 -1.472656 -1.917969 -1.46875 -1.75 L -1.46875 -1.265625 C -1.472656 -1.132812 -1.414062 -1.015625 -1.296875 -0.921875 C -1.171875 -0.816406 -1.035156 -0.765625 -0.890625 -0.765625 C 3.195312 -0.765625 7.277344 -0.667969 11.140625 -0.46875 C 15.011719 -0.277344 18.882812 -0.261719 22.75 -0.421875 C 32.222656 -0.816406 41.691406 -0.941406 51.15625 -0.796875 L 51.15625 5.515625 C 49.332031 5.378906 47.503906 5.378906 45.671875 5.515625 C 43.835938 5.660156 42.003906 5.925781 40.171875 6.3125 C 31.578125 8.164062 23 10.074219 14.4375 12.046875 C 5.875 14.027344 -2.6875 15.601562 -11.25 16.765625 C -11.457031 16.796875 -11.640625 16.910156 -11.796875 17.109375 C -11.945312 17.3125 -12.023438 17.53125 -12.03125 17.765625 L -12.03125 18.0625 C -12.015625 18.238281 -11.925781 18.378906 -11.765625 18.484375 C -11.609375 18.597656 -11.425781 18.652344 -11.21875 18.65625 C -2.394531 18.363281 6.425781 17.757812 15.25 16.84375 C 24.082031 15.9375 32.902344 14.652344 41.71875 12.984375 C 50.457031 11.347656 59.136719 9.386719 67.75 7.09375 C 76.371094 4.808594 84.921875 2.148438 93.40625 -0.890625 C 93.59375 -0.953125 93.738281 -1.066406 93.84375 -1.234375 C 93.945312 -1.402344 94 -1.585938 94.015625 -1.78125 L 94.015625 -2.078125 C 94 -2.265625 93.921875 -2.421875 93.765625 -2.546875 C 93.609375 -2.671875 93.425781 -2.734375 93.21875 -2.734375 C 80.894531 -2.734375 68.566406 -2.734375 56.234375 -2.734375 C 56.089844 -2.734375 55.953125 -2.679688 55.828125 -2.578125 C 55.703125 -2.472656 55.640625 -2.339844 55.640625 -2.171875 L 55.640625 -1.71875 C 55.644531 -1.558594 55.707031 -1.425781 55.828125 -1.328125 C 55.953125 -1.222656 56.089844 -1.171875 56.234375 -1.171875 C 67.546875 -1.171875 78.851562 -0.636719 90.15625 0.4375 C 90.414062 0.457031 90.628906 0.382812 90.8125 0.21875 C 91.003906 0.054688 91.097656 -0.160156 91.09375 -0.421875 C 91.082031 -1.183594 91.070312 -1.945312 91.0625 -2.703125 C 91.046875 -4.246094 91.046875 -5.789062 91.0625 -7.328125 C 91.078125 -13.675781 91.09375 -20.011719 91.109375 -26.34375 C 91.125 -32.675781 91.132812 -39 91.140625 -45.3125 C 91.140625 -45.894531 90.933594 -46.367188 90.515625 -46.734375 C 90.109375 -47.109375 89.578125 -47.296875 88.921875 -47.296875 L 83.359375 -47.296875 C 82.785156 -47.296875 82.359375 -47.054688 82.078125 -46.578125 C 81.808594 -46.101562 81.753906 -45.492188 81.921875 -44.75 C 83.515625 -37.511719 85.667969 -30.359375 88.375 -23.296875 C 91.082031 -16.234375 94.367188 -9.292969 98.234375 -2.484375 C 98.484375 -2.066406 98.8125 -1.78125 99.21875 -1.625 C 99.625 -1.472656 100.046875 -1.425781 100.484375 -1.484375 C 103.558594 -1.714844 106.621094 -1.871094 109.671875 -1.953125 C 112.722656 -2.03125 115.773438 -2.023438 118.828125 -1.921875 C 119.058594 -1.914062 119.269531 -1.945312 119.453125 -2.015625 C 119.636719 -2.085938 119.789062 -2.1875 119.90625 -2.3125 C 120.148438 -2.542969 120.160156 -2.839844 119.9375 -3.203125 C 119.574219 -3.824219 119.265625 -4.414062 119.015625 -4.96875 C 118.140625 -6.90625 117.316406 -8.859375 116.546875 -10.828125 C 115.777344 -12.796875 115.082031 -14.789062 114.46875 -16.8125 C 113.292969 -20.550781 112.246094 -24.335938 111.328125 -28.171875 C 110.410156 -32.007812 109.671875 -35.847656 109.125 -39.6875 C 109.027344 -40.375 108.796875 -40.90625 108.421875 -41.28125 C 108.046875 -41.65625 107.53125 -41.84375 106.875 -41.84375 L 101.3125 -41.84375 C 100.726562 -41.84375 100.304688 -41.601562 100.046875 -41.125 C 99.789062 -40.648438 99.730469 -40.039062 99.875 -39.296875 C 101.46875 -32.058594 103.621094 -24.90625 106.328125 -17.84375 C 109.035156 -10.78125 112.320312 -3.832031 116.1875 3.015625 C 116.542969 3.636719 117.054688 3.953125 117.71875 3.953125 C 120.03125 3.953125 122.34375 3.953125 124.65625 3.953125 L 124.65625 -44.25 C 124.65625 -44.832031 124.449219 -45.304688 124.03125 -45.671875 C 123.621094 -46.046875 123.089844 -46.234375 122.4375 -46.234375 L 116.875 -46.234375 C 116.292969 -46.234375 115.867188 -45.992188 115.59375 -45.515625 C 115.3125 -45.035156 115.253906 -44.425781 115.421875 -43.6875 C 117.015625 -36.449219 119.167969 -29.296875 121.875 -22.234375 C 124.582031 -15.171875 127.867188 -8.230469 131.734375 -1.421875 C 131.984375 -1.003906 132.3125 -0.71875 132.71875 -0.5625 C 133.125 -0.410156 133.546875 -0.363281 133.984375 -0.421875 C 137.058594 -0.652344 140.121094 -0.808594 143.171875 -0.890625 C 146.222656 -0.96875 149.273438 -0.960938 152.328125 -0.859375 C 152.558594 -0.851562 152.769531 -0.882812 152.953125 -0.953125 C 153.136719 -1.023438 153.289062 -1.125 153.40625 -1.25 C 153.648438 -1.480469 153.660156 -1.777344 153.4375 -2.140625 C 153.074219 -2.761719 152.765625 -3.351562 152.515625 -3.90625 C 151.640625 -5.84375 150.816406 -7.796875 150.046875 -9.765625 C 149.277344 -11.734375 148.582031 -13.726562 147.96875 -15.75 C 146.792969 -19.488281 145.746094 -23.273438 144.828125 -27.109375 C 143.910156 -30.945312 143.171875 -34.785156 142.625 -38.625 C 142.527344 -39.3125 142.296875 -39.84375 141.921875 -40.21875 C 141.546875 -40.59375 141.03125 -40.78125 140.375 -40.78125 L 134.8125 -40.78125 C 134.226562 -40.78125 133.804688 -40.539062 133.546875 -40.0625 C 133.289062 -39.585938 133.230469 -38.976562 133.375 -38.234375 C 134.96875 -30.996094 137.121094 -23.84375 139.828125 -16.78125 C 142.535156 -9.71875 145.820312 -2.769531 149.6875 4.078125 C 150.042969 4.699219 150.554688 5.015625 151.21875 5.015625 C 153.53125 5.015625 155.84375 5.015625 158.15625 5.015625 L 158.15625 -45.1875 C 158.15625 -45.769531 157.949219 -46.242188 157.53125 -46.609375 C 157.125 -46.984375 156.59375 -47.171875 155.9375 -47.171875 L 150.375 -47.171875 C 149.792969 -47.171875 149.367188 -46.929688 149.09375 -46.453125 C 148.8125 -45.972656 148.753906 -45.363281 148.921875 -44.625 C 150.515625 -37.386719 152.667969 -30.234375 155.375 -23.171875 C 158.082031 -16.109375 161.367188 -9.167969 165.234375 -2.359375 C 165.484375 -1.941406 165.8125 -1.65625 166.21875 -1.5 C 166.625 -1.347656 167.046875 -1.300781 167.484375 -1.359375 C 170.558594 -1.589844 173.621094 -1.746094 176.671875 -1.828125 C 179.722656 -1.90625 182.773438 -1.898438 185.828125 -1.796875 C 186.058594 -1.789062 182.527344 -3.425781 175.234375 -6.703125 C 167.953125 -9.988281 160.675781 -13.265625 153.40625 -16.53125 C 144.386719 -20.59375 135.375 -24.648438 126.375 -28.6875 C 117.375 -32.738281 108.382812 -36.78125 99.40625 -40.8125 L 99.40625 -46.4375 C 99.40625 -47.019531 99.199219 -47.492188 98.78125 -47.859375 C 98.375 -48.234375 97.84375 -48.421875 97.1875 -48.421875 L 91.625 -48.421875 C 91.042969 -48.421875 90.617188 -48.179688 90.34375 -47.703125 C 90.0625 -47.222656 90.003906 -46.613281 90.171875 -45.875 C 91.765625 -38.636719 93.917969 -31.484375 96.625 -24.328125 C 99.332031 -17.171875 102.617188 -10.214844 106.484375 -3.453125 C 106.734375 -3.035156 107.0625 -2.75 107.46875 -2.59375 C 107.875 -2.441406 108.296875 -2.394531 108.734375 -2.453125 C 111.808594 -2.683594 114.871094 -2.839844 117.921875 -2.921875 C 120.972656 -3 124.023438 -2.992188 127.078125 -2.890625 C 127.308594 -2.882812 127.519531 -2.914062 127.703125 -2.984375 C 127.886719 -3.054688 128.039062 -3.15625 128.15625 -3.28125 C 128.398438 -3.511719 128.410156 -3.808594 128.1875 -4.171875 C 127.824219 -4.792969 127.515625 -5.382812 127.265625 -5.9375 C 126.390625 -7.875 125.566406 -9.828125 124.796875 -11.796875 C 124.027344 -13.765625 123.332031 -15.757812 122.71875 -17.78125 C 121.542969 -21.519531 120.496094 -25.304688 119.578125 -29.140625 C 118.660156 -32.976562 117.921875 -36.816406 117.375 -40.65625 C 117.277344 -41.34375 117.046875 -41.875 116.671875 -42.25 C 116.296875 -42.625 115.78125 -42.8125 115.125 -42.8125 L 109.5625 -42.8125 C 108.976562 -42.8125 108.554688 -42.570312 108.296875 -42.09375 C 108.039062 -41.617188 107.980469 -41.007812 108.125 -40.265625 C 109.71875 -33.027344 111.871094 -25.875 114.578125 -18.8125 C 117.285156 -11.75 120.570312 -4.800781 124.4375 2.046875 C 124.792969 2.667969 125.304688 2.984375 125.96875 2.984375 C 128.28125 2.984375 130.59375 2.984375 132.90625 2.984375 L 132.90625 -45.21875 C 132.90625 -45.800781 132.699219 -46.273438 132.28125 -46.640625 C 131.871094 -47.015625 131.339844 -47.203125 130.6875 -47.203125 L 125.125 -47.203125 C 124.542969 -47.203125 124.117188 -46.960938 123.84375 -46.484375 C 123.5625 -46.003906 123.503906 -45.394531 123.671875 -44.65625 C 125.265625 -37.417969 127.417969 -30.265625 130.125 -23.203125 C 132.832031 -16.140625 136.117188 -9.199219 139.984375 -2.390625 C 140.234375 -1.972656 140.5625 -1.6875 140.96875 -1.53125 C 141.375 -1.378906 141.796875 -1.332031 142.234375 -1.390625 C 145.308594 -1.621094 148.371094 -1.777344 151.421875 -1.859375 C 154.472656 -1.9375 157.523438 -1.929688 160.578125 -1.828125 C 160.808594 -1.820312 161.019531 -1.851562 161.203125 -1.921875 C 161.386719 -1.992188 161.539062 -2.09375 161.65625 -2.21875 C 161.898438 -2.449219 161.910156 -2.746094 161.6875 -3.109375 C 161.324219 -3.730469 161.015625 -4.320312 160.765625 -4.875 C 159.890625 -6.8125 159.066406 -8.765625 158.296875 -10.734375 C 157.527344 -12.703125 156.832031 -14.695312 156.21875 -16.71875 C 155.042969 -20.457031 153.996094 -24.242188 153.078125 -28.078125 C 152.160156 -31.914062 151.421875 -35.753906 150.875 -39.59375 C 150.777344 -40.28125 150.546875 -40.8125 150.171875 -41.1875 C 149.796875 -41.5625 149.28125 -41.75 148.625 -41.75 L 143.0625 -41.75 C 142.476562 -41.75 142.054688 -41.507812 141.796875 -41.03125 C 141.539062 -40.554688 141.480469 -39.945312 141.625 -39.203125 C 143.21875 -31.964844 145.371094 -24.8125 148.078125 -17.75 C 150.785156 -10.6875 154.070312 -3.738281 157.9375 3.109375 C 158.292969 3.730469 158.804688 4.046875 159.46875 4.046875 C 161.78125 4.046875 164.09375 4.046875 166.40625 4.046875 L 166.40625 -44.15625 C 166.40625 -44.738281 166.199219 -45.210938 165.78125 -45.578125 C 165.375 -45.953125 164.84375 -46.140625 164.1875 -46.140625 L 158.625 -46.140625 C 158.042969 -46.140625 157.617188 -45.898438 157.34375 -45.421875 C 157.0625 -44.941406 157.003906 -44.332031 157.171875 -43.59375 C 158.765625 -36.355469 160.917969 -29.203125 163.625 -22.140625 C 166.332031 -15.078125 169.617188 -8.136719 173.484375 -1.328125 C 173.734375 -0.910156 174.0625 -0.625 174.46875 -0.46875 C 174.875 -0.316406 175.296875 -0.269531 175.734375 -0.328125 C 178.808594 -0.558594 181.871094 -0.714844 184.921875 -0.796875 C 187.972656 -0.875 191.023438 -0.867188 194.078125 -0.765625 C 194.308594 -0.757812 194.519531 -0.789062 194.703125 -0.859375 C 194.886719 -0.929688 195.039062 -1.03125 195.15625 -1.15625 C 195.398438 -1.386719 195.410156 -1.683594 195.1875 -2.046875 C 194.824219 -2.667969 194.515625 -3.257812 194.265625 -3.8125 C 193.390625 -5.75 192.566406 -7.703125 191.796875 -9.671875 C 191.027344 -11.640625 190.332031 -13.632812 189.71875 -15.65625 C 188.542969 -19.394531 187.496094 -23.179688 186.578125 -31.1875 C 185.660156 -35.1875 184.921875 -39.1875 184.375 -43.1875 L 184.375 -48.8125 C 184.375 -49.394531 184.167969 -49.867188 183.75 -50.234375 C 183.34375 -50.609375 182.8125 -50.796875 182.15625 -50.796875 L 176.59375 -50.796875 C 176.011719 -50.796875 175.585938 -50.554688 175.3125 -50.078125 C 175.03125 -49.597656 174.972656 -48.988281 175.140625 -48.25 C 176.734375 -41.011719 178.886719 -33.859375 181.59375 -26.703125 C 184.300781 -19.546875 187.585938 -12.589844 191.453125 -5.828125 C 191.703125 -5.410156 192.03125 -5.125 192.4375 -4.96875 C 192.84375 -4.816406 193.265625 -4.769531 193.703125 -4.828125 C 196.777344 -5.058594 199.839844 -5.214844 202.890625 -5.296875 C 205.941406 -5.375 208.992188 -5.367188 212.046875 -5.265625 C 212.277344 -5.257812 212.488281 -5.289062 212.671875 -5.359375 C 212.855469 -5.429688 213.007812 -5.53125 213.125 -5.65625 C 213.367188 -5.886719 213.378906 -6.183594 213.15625 -6.546875 C 212.792969 -7.167969 212.484375 -7.757812 212.234375 -8.3125 C 211.359375 -10.25 210.535156 -12.203125 209.765625 -14.171875 C 208.996094 -16.140625 208.300781 -18.132812 207.6875 -20.15625 C 206.511719 -23.894531 205.464844 -27.679688 204.546875 -31.515625 C 203.628906 -35.351562 202.890625 -39.191406 202.34375 -43.03125 C 202.246094 -43.71875 202.015625 -44.25 201.640625 -44.625 C 201.265625 -45 200.75 -45.1875 200.09375 -45.1875 L 194.53125 -45.1875 C 193.945312 -45.1875 193.523438 -44.945312 193.265625 -44.46875 C 193.007812 -43.992188 192.949219 -43.382812 193.09375 -42.640625 C 194.6875 -35.402344 196.839844 -28.25 199.546875 -21.1875 C 202.253906 -14.125 205.539062 -7.175781 209.40625 -0.328125 C 209.761719 0.292969 210.273438 0.609375 210.9375 0.609375 C 213.25 0.609375 215.5625 0.609375 217.875 0.609375 L 217.875 -44.15625 C 217.875 -44.738281 217.667969 -45.210938 217.25 -45.578125 C 216.84375 -45.953125 216.3125 -46.140625 215.65625 -46.140625 L 210.09375 -46.140625 C 209.511719 -46.140625 209.085938 -45.898438 208.8125 -45.421875 C 208.53125 -44.941406 208.472656 -44.332031 208.640625 -43.59375 C 210.234375 -36.355469 212.386719 -29.203125 215.09375 -22.140625 C 217.800781 -15.078125 221.085938 -8.136719 224.953125 -1.328125 C 225.203125 -0.910156 225.53125 -0.625 225.9375 -0.46875 C 226.34375 -0.316406 226.765625 -0.269531 227.203125 -0.328125 C 230.277344 -0.558594 233.339844 -0.714844 236.390625 -0.796875 C 239.441406 -0.875 242.492188 -0.867188 245.546875 -0.765625 C 245.777344 -0.757812 245.988281 -0.789062 246.171875 -0.859375 C 246.355469 -0.929688 246.507812 -1.03125 246.625 -1.15625 C 246.867188 -1.386719 246.878906 -1.683594 246.65625 -2.046875 C 246.292969 -2.667969 245.984375 -3.257812 245.734375 -3.8125 C 244.859375 -5.75 244.035156 -7.703125 243.265625 -9.671875 C 242.496094 -11.640625 241.800781 -13.632812 241.1875 -15.65625 C 240.011719 -19.394531 238.964844 -23.179688 238.046875 -27.015625 C 237.128906 -30.851562 236.390625 -34.691406 235.84375 -38.53125 C 235.746094 -39.21875 235.515625 -39.75 235.140625 -40.125 C 234.765625 -40.5 234.25 -40.6875 233.59375 -40.6875 L 228.03125 -40.6875 C 227.445312 -40.6875 227.023438 -40.445312 226.765625 -39.96875 C 226.507812 -39.492188 226.449219 -38.882812 226.59375 -38.140625 C 228.1875 -30.902344 230.339844 -23.75 233.046875 -16.6875 C 235.753906 -9.625 239.039062 -2.675781 242.90625 1.171875 C 243.261719 1.792969 243.773438 2.109375 244.4375 2.109375 C 246.75 2.109375 249.0625 2.109375 251.375 2.109375 L 251.375 -44.25 C 251.375 -44.832031 251.167969 -45.304688 250.75 -45.671875 C 250.34375 -46.046875 249.8125 -46.234375 249.15625 -46.234375 L 243.59375 -46.234375 C 243.011719 -46.234375 242.585938 -45.992188 242.3125 -45.515625 C 242.03125 -45.035156 241.972656 -44.425781 242.140625 -43.6875 C 243.734375 -36.449219 245.886719 -29.296875 248.59375 -22.234375 C 251.300781 -15.171875 254.585938 -8.230469 258.453125 -1.421875 C 258.703125 -1.003906 259.03125 -0.71875 259.4375 -0.5625 C 259.84375 -0.410156 260.265625 -0.363281 260.703125 -0.421875 C 263.777344 -0.652344 266.839844 -0.808594 269.890625 -0.890625 C 272.941406 -0.96875 275.992188 -0.960938 279.046875 -0.859375 L 279.046875 -6.40625 C 278.4375 -6.449219 277.84375 -6.449219 277.265625 -6.40625 C 276.6875 -6.363281 276.109375 -6.234375 275.53125 -6.015625 C 272.84375 -5.027344 270.15625 -4.011719 267.46875 -2.96875 C 264.78125 -1.914062 262.101562 -0.828125 259.4375 0.296875 "/>
        </g>
      </g>
    </g>
  </g>
</svg>
