<svg xmlns="http://www.w3.org/2000/svg" xmlns:xlink="http://www.w3.org/1999/xlink" width="500" zoomAndPan="magnify" viewBox="0 0 375 374.999991" height="500" preserveAspectRatio="xMidYMid meet" version="1.0"><defs><g/><clipPath id="e42451bcdf"><path d="M 124 0.078125 L 162 0.078125 L 162 56 L 124 56 Z M 124 0.078125 " clip-rule="nonzero"/></clipPath><clipPath id="65168b509c"><path d="M 250 0.078125 L 263 0.078125 L 263 56 L 250 56 Z M 250 0.078125 " clip-rule="nonzero"/></clipPath><clipPath id="dce62ca6b4"><rect x="0" width="264" y="0" height="71"/></clipPath></defs><g transform="matrix(1, 0, 0, 1, 48, 142)"><g clip-path="url(#dce62ca6b4)"><g fill="#4d8af0" fill-opacity="1"><g transform="translate(1.270769, 55.539348)"><g><path d="M 42.921875 -0.84375 C 42.691406 -0.5625 42.390625 -0.382812 42.015625 -0.3125 C 41.640625 -0.238281 41.265625 -0.203125 40.890625 -0.203125 C 34.671875 -0.296875 28.425781 -0.410156 22.15625 -0.546875 C 15.894531 -0.691406 9.65625 -0.53125 3.4375 -0.0625 C 2.175781 0.0195312 1.285156 -0.203125 0.765625 -0.734375 C 0.253906 -1.273438 0.0078125 -1.988281 0.03125 -2.875 C 0.0507812 -3.757812 0.179688 -4.71875 0.421875 -5.75 C 0.890625 -7.382812 1.632812 -8.90625 2.65625 -10.3125 C 3.6875 -11.71875 4.71875 -13.070312 5.75 -14.375 C 7.4375 -16.570312 9.164062 -18.710938 10.9375 -20.796875 C 12.71875 -22.878906 14.472656 -24.992188 16.203125 -27.140625 C 17.554688 -28.828125 18.875 -30.535156 20.15625 -32.265625 C 21.445312 -33.992188 22.722656 -35.722656 23.984375 -37.453125 C 24.410156 -38.054688 24.820312 -38.742188 25.21875 -39.515625 C 25.613281 -40.296875 25.738281 -40.988281 25.59375 -41.59375 C 25.457031 -42.195312 24.734375 -42.5 23.421875 -42.5 C 20.242188 -42.5 17.050781 -42.519531 13.84375 -42.5625 C 10.644531 -42.613281 7.457031 -42.570312 4.28125 -42.4375 C 4.1875 -42.4375 4.078125 -42.421875 3.953125 -42.390625 C 3.835938 -42.367188 3.734375 -42.359375 3.640625 -42.359375 C 3.179688 -42.359375 2.691406 -42.40625 2.171875 -42.5 C 1.660156 -42.59375 1.3125 -42.921875 1.125 -43.484375 C 1.03125 -43.765625 0.984375 -44.054688 0.984375 -44.359375 C 0.984375 -44.660156 1.003906 -44.976562 1.046875 -45.3125 C 1.140625 -45.96875 1.140625 -46.726562 1.046875 -47.59375 C 0.953125 -48.457031 0.972656 -49.285156 1.109375 -50.078125 C 1.253906 -50.867188 1.703125 -51.429688 2.453125 -51.765625 C 3.148438 -52.085938 4.015625 -52.191406 5.046875 -52.078125 C 6.078125 -51.960938 6.96875 -51.90625 7.71875 -51.90625 C 8.695312 -51.90625 9.675781 -51.90625 10.65625 -51.90625 C 11.644531 -51.90625 12.628906 -51.90625 13.609375 -51.90625 C 17.671875 -51.945312 21.734375 -51.96875 25.796875 -51.96875 C 29.867188 -51.96875 33.96875 -51.921875 38.09375 -51.828125 C 39.257812 -51.828125 40.34375 -51.675781 41.34375 -51.375 C 42.351562 -51.070312 42.878906 -50.171875 42.921875 -48.671875 C 42.972656 -46.898438 42.597656 -45.242188 41.796875 -43.703125 C 41.003906 -42.160156 40.046875 -40.695312 38.921875 -39.3125 C 37.804688 -37.9375 36.734375 -36.59375 35.703125 -35.28125 C 33.734375 -32.757812 31.742188 -30.257812 29.734375 -27.78125 C 27.722656 -25.300781 25.757812 -22.796875 23.84375 -20.265625 C 23.519531 -19.796875 22.957031 -19.128906 22.15625 -18.265625 C 21.363281 -17.398438 20.570312 -16.453125 19.78125 -15.421875 C 18.988281 -14.398438 18.367188 -13.410156 17.921875 -12.453125 C 17.472656 -11.492188 17.414062 -10.707031 17.75 -10.09375 C 18.070312 -9.488281 18.582031 -9.1875 19.28125 -9.1875 C 21.664062 -9.1875 24.039062 -9.1875 26.40625 -9.1875 C 28.769531 -9.1875 31.144531 -9.1875 33.53125 -9.1875 C 34.28125 -9.1875 35.210938 -9.28125 36.328125 -9.46875 C 37.453125 -9.65625 38.578125 -9.769531 39.703125 -9.8125 C 40.828125 -9.863281 41.773438 -9.703125 42.546875 -9.328125 C 43.316406 -8.953125 43.722656 -8.179688 43.765625 -7.015625 C 43.859375 -5.566406 43.789062 -4.09375 43.5625 -2.59375 C 43.507812 -2.3125 43.457031 -2.039062 43.40625 -1.78125 C 43.363281 -1.53125 43.273438 -1.285156 43.140625 -1.046875 C 43.085938 -1.003906 43.050781 -0.96875 43.03125 -0.9375 C 43.007812 -0.914062 42.972656 -0.882812 42.921875 -0.84375 Z M 42.921875 -0.84375 "/></g></g></g><g fill="#4d8af0" fill-opacity="1"><g transform="translate(45.246164, 55.539348)"><g><path d="M 39.34375 -17.8125 C 38.78125 -17.34375 37.945312 -17.023438 36.84375 -16.859375 C 35.75 -16.703125 34.582031 -16.625 33.34375 -16.625 C 32.113281 -16.625 30.957031 -16.644531 29.875 -16.6875 C 28.800781 -16.738281 27.984375 -16.765625 27.421875 -16.765625 C 24.992188 -16.710938 22.585938 -16.675781 20.203125 -16.65625 C 17.816406 -16.632812 15.40625 -16.625 12.96875 -16.625 C 12.226562 -16.625 11.75 -16.390625 11.53125 -15.921875 C 11.320312 -15.453125 11.300781 -14.925781 11.46875 -14.34375 C 11.632812 -13.757812 11.859375 -13.253906 12.140625 -12.828125 C 13.117188 -11.566406 14.34375 -10.550781 15.8125 -9.78125 C 17.289062 -9.007812 18.820312 -8.53125 20.40625 -8.34375 C 22.1875 -8.15625 23.671875 -8.398438 24.859375 -9.078125 C 26.054688 -9.753906 27.398438 -10.46875 28.890625 -11.21875 C 29.597656 -11.59375 30.078125 -11.828125 30.328125 -11.921875 C 30.585938 -12.015625 31.023438 -11.804688 31.640625 -11.296875 C 32.285156 -10.773438 32.898438 -10.070312 33.484375 -9.1875 C 34.078125 -8.300781 34.648438 -7.53125 35.203125 -6.875 C 35.816406 -6.082031 35.796875 -5.332031 35.140625 -4.625 C 34.484375 -3.925781 33.476562 -3.285156 32.125 -2.703125 C 30.769531 -2.117188 29.296875 -1.613281 27.703125 -1.1875 C 26.117188 -0.769531 24.679688 -0.441406 23.390625 -0.203125 C 22.109375 0.0234375 21.234375 0.140625 20.765625 0.140625 C 17.628906 0.140625 14.738281 -0.476562 12.09375 -1.71875 C 9.457031 -2.957031 7.203125 -4.640625 5.328125 -6.765625 C 3.460938 -8.890625 2.0625 -11.285156 1.125 -13.953125 C 0.1875 -16.617188 -0.175781 -19.410156 0.03125 -22.328125 C 0.238281 -25.253906 1.140625 -28.097656 2.734375 -30.859375 C 3.953125 -33.015625 5.578125 -34.835938 7.609375 -36.328125 C 9.640625 -37.828125 11.882812 -38.9375 14.34375 -39.65625 C 16.800781 -40.382812 19.3125 -40.710938 21.875 -40.640625 C 24.445312 -40.578125 26.890625 -40.066406 29.203125 -39.109375 C 31.523438 -38.148438 33.550781 -36.710938 35.28125 -34.796875 C 36.070312 -33.898438 36.828125 -32.785156 37.546875 -31.453125 C 38.273438 -30.117188 38.894531 -28.679688 39.40625 -27.140625 C 39.925781 -25.597656 40.242188 -24.085938 40.359375 -22.609375 C 40.484375 -21.140625 40.332031 -19.800781 39.90625 -18.59375 C 39.8125 -18.3125 39.625 -18.050781 39.34375 -17.8125 Z M 28.75 -25.109375 C 28.894531 -25.429688 28.941406 -25.78125 28.890625 -26.15625 C 28.847656 -26.71875 28.59375 -27.257812 28.125 -27.78125 C 26.863281 -29.550781 25.226562 -30.859375 23.21875 -31.703125 C 21.207031 -32.546875 19.148438 -32.5 17.046875 -31.5625 C 16.109375 -31.144531 15.226562 -30.609375 14.40625 -29.953125 C 13.59375 -29.296875 12.835938 -28.59375 12.140625 -27.84375 C 11.953125 -27.65625 11.765625 -27.441406 11.578125 -27.203125 C 11.390625 -26.972656 11.25 -26.71875 11.15625 -26.4375 C 10.96875 -25.875 11.0625 -25.359375 11.4375 -24.890625 C 11.8125 -24.429688 12.273438 -24.203125 12.828125 -24.203125 L 27.140625 -24.203125 C 27.941406 -24.203125 28.476562 -24.503906 28.75 -25.109375 Z M 28.75 -25.109375 "/></g></g></g><g fill="#4d8af0" fill-opacity="1"><g transform="translate(85.78484, 55.539348)"><g><path d="M 35.84375 -0.34375 C 34.625 -0.394531 33.394531 -0.40625 32.15625 -0.375 C 30.914062 -0.351562 29.664062 -0.34375 28.40625 -0.34375 C 28.125 -0.34375 27.898438 -0.832031 27.734375 -1.8125 C 27.578125 -2.800781 27.472656 -4.085938 27.421875 -5.671875 C 27.378906 -7.265625 27.359375 -8.984375 27.359375 -10.828125 C 27.359375 -12.679688 27.378906 -14.472656 27.421875 -16.203125 C 27.472656 -17.929688 27.507812 -19.425781 27.53125 -20.6875 C 27.550781 -21.945312 27.5625 -22.765625 27.5625 -23.140625 C 27.519531 -25.765625 27.113281 -27.753906 26.34375 -29.109375 C 25.570312 -30.460938 24.613281 -31.394531 23.46875 -31.90625 C 22.320312 -32.425781 21.1875 -32.6875 20.0625 -32.6875 L 19.921875 -32.6875 C 17.253906 -32.6875 15.085938 -31.785156 13.421875 -29.984375 C 11.765625 -28.179688 10.890625 -25.832031 10.796875 -22.9375 C 10.753906 -21.0625 10.734375 -19.1875 10.734375 -17.3125 C 10.734375 -15.445312 10.734375 -13.582031 10.734375 -11.71875 C 10.773438 -10.269531 10.898438 -8.664062 11.109375 -6.90625 C 11.328125 -5.15625 11.296875 -3.554688 11.015625 -2.109375 C 10.828125 -1.023438 10.394531 -0.445312 9.71875 -0.375 C 9.039062 -0.3125 8.28125 -0.253906 7.4375 -0.203125 C 6.875 -0.160156 6.132812 -0.101562 5.21875 -0.03125 C 4.3125 0.03125 3.425781 -0.00390625 2.5625 -0.140625 C 1.695312 -0.273438 1.050781 -0.625 0.625 -1.1875 C 0.113281 -1.9375 -0.0703125 -2.835938 0.0625 -3.890625 C 0.207031 -4.941406 0.300781 -5.863281 0.34375 -6.65625 C 0.53125 -9.226562 0.671875 -11.847656 0.765625 -14.515625 C 0.910156 -19.566406 0.769531 -24.59375 0.34375 -29.59375 C 0.25 -30.582031 0.175781 -31.726562 0.125 -33.03125 C 0.0820312 -34.34375 0.191406 -35.59375 0.453125 -36.78125 C 0.710938 -37.976562 1.226562 -38.914062 2 -39.59375 C 2.769531 -40.269531 3.925781 -40.46875 5.46875 -40.1875 C 6.726562 -39.957031 7.96875 -39.664062 9.1875 -39.3125 C 10.40625 -38.957031 11.644531 -38.664062 12.90625 -38.4375 C 13 -38.4375 13.101562 -38.4375 13.21875 -38.4375 C 13.332031 -38.4375 13.414062 -38.4375 13.46875 -38.4375 C 14.351562 -38.4375 15.238281 -38.609375 16.125 -38.953125 C 17.019531 -39.304688 17.929688 -39.671875 18.859375 -40.046875 C 19.796875 -40.421875 20.734375 -40.632812 21.671875 -40.6875 C 24.378906 -40.914062 26.953125 -40.445312 29.390625 -39.28125 C 31.492188 -38.300781 33.117188 -37.015625 34.265625 -35.421875 C 35.410156 -33.828125 36.238281 -32.070312 36.75 -30.15625 C 37.269531 -28.238281 37.597656 -26.25 37.734375 -24.1875 C 37.878906 -22.132812 38 -20.101562 38.09375 -18.09375 C 38.09375 -17.675781 38.132812 -16.8125 38.21875 -15.5 C 38.3125 -14.1875 38.367188 -12.675781 38.390625 -10.96875 C 38.421875 -9.269531 38.390625 -7.613281 38.296875 -6 C 38.203125 -4.382812 37.976562 -3.035156 37.625 -1.953125 C 37.28125 -0.878906 36.753906 -0.34375 36.046875 -0.34375 C 36.003906 -0.34375 35.96875 -0.34375 35.9375 -0.34375 C 35.914062 -0.34375 35.882812 -0.34375 35.84375 -0.34375 Z M 35.84375 -0.34375 "/></g></g></g><g clip-path="url(#e42451bcdf)"><g fill="#4d8af0" fill-opacity="1"><g transform="translate(124.359674, 55.539348)"><g><path d="M 20.6875 -6.9375 C 19.9375 -8.207031 19.101562 -9.390625 18.1875 -10.484375 C 17.28125 -11.585938 16.222656 -12.554688 15.015625 -13.390625 C 14.679688 -13.628906 14.351562 -13.75 14.03125 -13.75 C 13.976562 -13.75 13.914062 -13.734375 13.84375 -13.703125 C 13.78125 -13.679688 13.703125 -13.671875 13.609375 -13.671875 C 13.085938 -13.578125 12.710938 -13.296875 12.484375 -12.828125 C 11.878906 -11.804688 11.410156 -10.894531 11.078125 -10.09375 C 10.753906 -9.300781 10.566406 -8.273438 10.515625 -7.015625 C 10.472656 -6.265625 10.472656 -5.523438 10.515625 -4.796875 C 10.566406 -4.078125 10.613281 -3.34375 10.65625 -2.59375 C 10.75 -1.800781 10.5625 -1.21875 10.09375 -0.84375 C 9.957031 -0.695312 9.796875 -0.597656 9.609375 -0.546875 C 9.421875 -0.503906 9.210938 -0.460938 8.984375 -0.421875 C 8.367188 -0.273438 7.476562 -0.132812 6.3125 0 C 5.144531 0.132812 4.035156 0.125 2.984375 -0.03125 C 1.929688 -0.195312 1.238281 -0.675781 0.90625 -1.46875 C 0.488281 -2.59375 0.234375 -3.820312 0.140625 -5.15625 C 0.046875 -6.488281 0.0195312 -7.84375 0.0625 -9.21875 C 0.113281 -10.601562 0.113281 -11.878906 0.0625 -13.046875 C 0.0195312 -15.242188 0 -17.441406 0 -19.640625 C 0 -21.835938 0 -24.035156 0 -26.234375 C 0.0390625 -30.578125 0.0820312 -34.9375 0.125 -39.3125 C 0.175781 -43.6875 0.179688 -48.070312 0.140625 -52.46875 C 0.140625 -54.144531 0.910156 -54.960938 2.453125 -54.921875 C 3.015625 -54.921875 3.726562 -54.96875 4.59375 -55.0625 C 5.457031 -55.15625 6.320312 -55.1875 7.1875 -55.15625 C 8.050781 -55.132812 8.796875 -54.972656 9.421875 -54.671875 C 10.054688 -54.367188 10.398438 -53.820312 10.453125 -53.03125 C 10.546875 -51.8125 10.578125 -50.570312 10.546875 -49.3125 C 10.523438 -48.050781 10.515625 -46.8125 10.515625 -45.59375 C 10.515625 -43.488281 10.515625 -41.394531 10.515625 -39.3125 C 10.515625 -37.226562 10.492188 -35.132812 10.453125 -33.03125 C 10.453125 -32.195312 10.566406 -31.507812 10.796875 -30.96875 C 11.035156 -30.425781 11.457031 -29.875 12.0625 -29.3125 C 12.394531 -28.988281 12.789062 -28.828125 13.25 -28.828125 C 13.769531 -28.828125 14.21875 -29.015625 14.59375 -29.390625 C 16.507812 -31.441406 18.425781 -33.507812 20.34375 -35.59375 C 22.257812 -37.675781 24.316406 -39.582031 26.515625 -41.3125 C 28.148438 -42.664062 29.945312 -43.203125 31.90625 -42.921875 C 32.613281 -42.878906 33.398438 -42.703125 34.265625 -42.390625 C 35.128906 -42.085938 35.796875 -41.65625 36.265625 -41.09375 C 36.734375 -40.539062 36.6875 -39.816406 36.125 -38.921875 C 35.9375 -38.597656 35.703125 -38.296875 35.421875 -38.015625 C 35.140625 -37.734375 34.859375 -37.476562 34.578125 -37.25 C 33.691406 -36.445312 32.640625 -35.507812 31.421875 -34.4375 C 30.203125 -33.363281 29.019531 -32.191406 27.875 -30.921875 C 26.726562 -29.660156 25.769531 -28.351562 25 -27 C 24.226562 -25.644531 23.804688 -24.273438 23.734375 -22.890625 C 23.671875 -21.515625 24.15625 -20.148438 25.1875 -18.796875 C 27.195312 -16.085938 29.285156 -13.28125 31.453125 -10.375 C 33.628906 -7.476562 35.375 -4.460938 36.6875 -1.328125 C 35.789062 -0.722656 34.722656 -0.40625 33.484375 -0.375 C 32.253906 -0.351562 30.992188 -0.445312 29.703125 -0.65625 C 28.421875 -0.875 27.265625 -1.003906 26.234375 -1.046875 C 25.203125 -1.140625 24.378906 -1.535156 23.765625 -2.234375 C 23.160156 -2.941406 22.601562 -3.71875 22.09375 -4.5625 C 21.90625 -4.976562 21.679688 -5.382812 21.421875 -5.78125 C 21.171875 -6.175781 20.925781 -6.5625 20.6875 -6.9375 Z M 20.6875 -6.9375 "/></g></g></g></g><g fill="#4d8af0" fill-opacity="1"><g transform="translate(161.181078, 55.539348)"><g><path d="M 2.109375 -38.015625 C 2.617188 -39.515625 3.316406 -41.09375 4.203125 -42.75 C 5.097656 -44.40625 6.234375 -45.945312 7.609375 -47.375 C 8.984375 -48.800781 10.609375 -49.890625 12.484375 -50.640625 C 13.554688 -51.109375 14.734375 -51.445312 16.015625 -51.65625 C 17.304688 -51.863281 18.65625 -51.96875 20.0625 -51.96875 C 20.71875 -51.96875 21.394531 -51.941406 22.09375 -51.890625 C 22.789062 -51.847656 23.515625 -51.78125 24.265625 -51.6875 C 29.546875 -51.039062 33.566406 -48.75 36.328125 -44.8125 C 37.734375 -42.894531 38.773438 -40.753906 39.453125 -38.390625 C 40.128906 -36.035156 40.597656 -33.757812 40.859375 -31.5625 C 41.117188 -29.363281 41.25 -27.492188 41.25 -25.953125 C 41.25 -25.484375 41.25 -25.023438 41.25 -24.578125 C 41.25 -24.140625 41.25 -23.660156 41.25 -23.140625 C 41.195312 -21.785156 41.003906 -20.101562 40.671875 -18.09375 C 40.347656 -16.082031 39.742188 -14 38.859375 -11.84375 C 37.972656 -9.695312 36.664062 -7.710938 34.9375 -5.890625 C 33.195312 -4.023438 31.113281 -2.585938 28.6875 -1.578125 C 26.257812 -0.566406 23.664062 -0.0625 20.90625 -0.0625 C 20.476562 -0.0625 20.039062 -0.0703125 19.59375 -0.09375 C 19.15625 -0.125 18.726562 -0.160156 18.3125 -0.203125 C 12.925781 -0.910156 8.644531 -3.460938 5.46875 -7.859375 C 3.175781 -10.898438 1.585938 -14.582031 0.703125 -18.90625 C -0.179688 -23.226562 -0.253906 -27.585938 0.484375 -31.984375 C 0.671875 -33.015625 0.90625 -34.03125 1.1875 -35.03125 C 1.46875 -36.039062 1.773438 -37.035156 2.109375 -38.015625 Z M 20.40625 -43.203125 C 18.675781 -43.160156 17.226562 -42.71875 16.0625 -41.875 C 14.894531 -41.03125 13.972656 -40.035156 13.296875 -38.890625 C 12.617188 -37.742188 12.101562 -36.597656 11.75 -35.453125 C 11.394531 -34.304688 11.125 -33.382812 10.9375 -32.6875 C 10.707031 -31.613281 10.53125 -30.515625 10.40625 -29.390625 C 10.289062 -28.265625 10.234375 -27.117188 10.234375 -25.953125 C 10.285156 -23.847656 10.566406 -21.753906 11.078125 -19.671875 C 11.597656 -17.585938 12.300781 -15.519531 13.1875 -13.46875 C 13.84375 -12.15625 14.90625 -11.03125 16.375 -10.09375 C 17.851562 -9.164062 19.335938 -8.703125 20.828125 -8.703125 C 20.921875 -8.703125 21.003906 -8.703125 21.078125 -8.703125 C 21.148438 -8.703125 21.207031 -8.703125 21.25 -8.703125 C 22.65625 -8.742188 24.035156 -9.28125 25.390625 -10.3125 C 26.703125 -11.25 27.894531 -12.648438 28.96875 -14.515625 C 30.039062 -16.390625 30.785156 -18.726562 31.203125 -21.53125 C 31.628906 -24.332031 31.515625 -27.609375 30.859375 -31.359375 C 30.722656 -32.242188 30.476562 -33.351562 30.125 -34.6875 C 29.769531 -36.019531 29.253906 -37.335938 28.578125 -38.640625 C 27.898438 -39.953125 26.941406 -41.050781 25.703125 -41.9375 C 24.460938 -42.832031 22.863281 -43.28125 20.90625 -43.28125 C 20.71875 -43.28125 20.550781 -43.253906 20.40625 -43.203125 Z M 20.40625 -43.203125 "/></g></g></g><g fill="#4d8af0" fill-opacity="1"><g transform="translate(202.561405, 55.539348)"><g><path d="M 1.96875 -10.734375 C 2.757812 -11.523438 3.726562 -12.082031 4.875 -12.40625 C 6.019531 -12.738281 7.15625 -12.71875 8.28125 -12.34375 C 9.863281 -11.875 11.085938 -10.925781 11.953125 -9.5 C 12.816406 -8.070312 13.066406 -6.539062 12.703125 -4.90625 C 12.515625 -3.875 12.046875 -2.925781 11.296875 -2.0625 C 10.546875 -1.195312 9.65625 -0.578125 8.625 -0.203125 C 7.125 0.304688 5.671875 0.257812 4.265625 -0.34375 C 2.867188 -0.957031 1.757812 -1.914062 0.9375 -3.21875 C 0.125 -4.53125 -0.140625 -5.957031 0.140625 -7.5 C 0.421875 -8.8125 1.03125 -9.890625 1.96875 -10.734375 Z M 1.96875 -10.734375 "/></g></g></g><g fill="#4d8af0" fill-opacity="1"><g transform="translate(215.606301, 55.539348)"><g><path d="M 34.296875 -1.75 C 33.921875 -1.28125 33.335938 -1.023438 32.546875 -0.984375 C 31.796875 -0.984375 31.066406 -1.132812 30.359375 -1.4375 C 29.660156 -1.738281 28.972656 -2.039062 28.296875 -2.34375 C 27.617188 -2.65625 26.882812 -2.8125 26.09375 -2.8125 C 25.582031 -2.8125 25.066406 -2.773438 24.546875 -2.703125 C 24.035156 -2.628906 23.566406 -2.546875 23.140625 -2.453125 L 22.796875 -2.390625 C 21.441406 -2.148438 20.117188 -1.84375 18.828125 -1.46875 C 17.546875 -1.09375 16.34375 -0.71875 15.21875 -0.34375 C 14.707031 -0.207031 14.179688 -0.09375 13.640625 0 C 13.097656 0.09375 12.550781 0.140625 12 0.140625 C 8.582031 0.140625 5.703125 -1.210938 3.359375 -3.921875 C 0.703125 -6.960938 -0.347656 -10.707031 0.203125 -15.15625 C 0.441406 -16.925781 1.0625 -18.515625 2.0625 -19.921875 C 3.070312 -21.328125 4.347656 -22.398438 5.890625 -23.140625 C 6.679688 -23.515625 7.519531 -23.785156 8.40625 -23.953125 C 9.300781 -24.117188 10.21875 -24.269531 11.15625 -24.40625 C 11.382812 -24.40625 11.59375 -24.414062 11.78125 -24.4375 C 11.96875 -24.46875 12.15625 -24.503906 12.34375 -24.546875 L 21.53125 -25.8125 C 22.75 -26 23.507812 -26.359375 23.8125 -26.890625 C 24.113281 -27.429688 24.289062 -27.867188 24.34375 -28.203125 C 24.4375 -28.992188 24.1875 -29.71875 23.59375 -30.375 C 23.007812 -31.03125 22.320312 -31.472656 21.53125 -31.703125 C 20.082031 -32.265625 18.585938 -32.546875 17.046875 -32.546875 L 16.828125 -32.546875 C 15.378906 -32.492188 14 -32.28125 12.6875 -31.90625 C 11.382812 -31.539062 10.125 -31.097656 8.90625 -30.578125 C 8.53125 -30.390625 8.085938 -30.296875 7.578125 -30.296875 C 6.546875 -30.296875 5.523438 -30.632812 4.515625 -31.3125 C 3.515625 -31.988281 2.804688 -32.796875 2.390625 -33.734375 C 2.203125 -34.109375 2.117188 -34.421875 2.140625 -34.671875 C 2.160156 -34.929688 2.195312 -35.132812 2.25 -35.28125 C 2.53125 -35.882812 3.078125 -36.429688 3.890625 -36.921875 C 4.710938 -37.421875 5.578125 -37.84375 6.484375 -38.1875 C 7.398438 -38.539062 8.160156 -38.8125 8.765625 -39 C 12.128906 -40.070312 15.519531 -40.609375 18.9375 -40.609375 C 19.257812 -40.609375 19.582031 -40.609375 19.90625 -40.609375 C 20.238281 -40.609375 20.570312 -40.585938 20.90625 -40.546875 C 22.539062 -40.453125 24.347656 -40.132812 26.328125 -39.59375 C 28.316406 -39.050781 30.015625 -38.035156 31.421875 -36.546875 C 33.054688 -34.765625 34.039062 -32.988281 34.375 -31.21875 C 34.75 -29.207031 34.875 -27.113281 34.75 -24.9375 C 34.632812 -22.757812 34.601562 -20.644531 34.65625 -18.59375 C 34.65625 -16.488281 34.65625 -14.367188 34.65625 -12.234375 C 34.65625 -10.109375 34.675781 -8.019531 34.71875 -5.96875 C 34.71875 -5.257812 34.753906 -4.507812 34.828125 -3.71875 C 34.898438 -2.925781 34.722656 -2.269531 34.296875 -1.75 Z M 24.125 -13.8125 C 24.5 -14.5625 24.613281 -15.191406 24.46875 -15.703125 C 24.332031 -16.222656 24.195312 -16.578125 24.0625 -16.765625 C 23.875 -17.046875 23.578125 -17.3125 23.171875 -17.5625 C 22.773438 -17.820312 22.226562 -17.976562 21.53125 -18.03125 L 20.96875 -18.09375 C 20.550781 -18.144531 20.117188 -18.171875 19.671875 -18.171875 C 19.234375 -18.171875 18.753906 -18.171875 18.234375 -18.171875 C 17.441406 -18.171875 16.484375 -18.085938 15.359375 -17.921875 C 14.234375 -17.753906 13.160156 -17.320312 12.140625 -16.625 C 11.429688 -16.0625 10.984375 -15.476562 10.796875 -14.875 C 10.609375 -14.351562 10.585938 -13.695312 10.734375 -12.90625 C 11.054688 -11.457031 11.6875 -10.332031 12.625 -9.53125 C 13.5625 -8.738281 14.679688 -8.34375 15.984375 -8.34375 C 17.628906 -8.34375 19.242188 -8.878906 20.828125 -9.953125 C 22.421875 -11.035156 23.519531 -12.320312 24.125 -13.8125 Z M 24.125 -13.8125 "/></g></g></g><g clip-path="url(#65168b509c)"><g fill="#4d8af0" fill-opacity="1"><g transform="translate(250.604135, 55.539348)"><g><path d="M 2.671875 -44.1875 C 1.640625 -44.84375 0.890625 -45.765625 0.421875 -46.953125 C -0.046875 -48.148438 -0.0703125 -49.453125 0.34375 -50.859375 C 1.144531 -53.609375 3.019531 -55.03125 5.96875 -55.125 L 6.109375 -55.125 C 7.554688 -55.125 8.769531 -54.738281 9.75 -53.96875 C 10.726562 -53.195312 11.382812 -52.132812 11.71875 -50.78125 C 12.132812 -49.09375 11.96875 -47.546875 11.21875 -46.140625 C 10.46875 -44.742188 9.207031 -43.835938 7.4375 -43.421875 C 6.550781 -43.234375 5.695312 -43.207031 4.875 -43.34375 C 4.050781 -43.488281 3.316406 -43.769531 2.671875 -44.1875 Z M 1.6875 -37.171875 C 2.34375 -37.597656 3.273438 -37.785156 4.484375 -37.734375 C 5.191406 -37.734375 5.960938 -37.753906 6.796875 -37.796875 C 7.640625 -37.847656 8.421875 -37.769531 9.140625 -37.5625 C 9.867188 -37.351562 10.351562 -36.875 10.59375 -36.125 C 11.007812 -34.957031 11.144531 -33.539062 11 -31.875 C 10.863281 -30.21875 10.796875 -28.78125 10.796875 -27.5625 C 10.847656 -24.707031 10.875 -21.878906 10.875 -19.078125 C 10.875 -16.273438 10.894531 -13.445312 10.9375 -10.59375 C 10.9375 -10.125 10.992188 -9.335938 11.109375 -8.234375 C 11.234375 -7.140625 11.304688 -5.960938 11.328125 -4.703125 C 11.347656 -3.441406 11.21875 -2.363281 10.9375 -1.46875 C 10.65625 -0.582031 10.097656 -0.113281 9.265625 -0.0625 C 8.179688 -0.0195312 7.054688 0.0078125 5.890625 0.03125 C 4.722656 0.0507812 3.601562 -0.00390625 2.53125 -0.140625 C 1.78125 -0.234375 1.265625 -0.640625 0.984375 -1.359375 C 0.703125 -2.085938 0.546875 -2.96875 0.515625 -4 C 0.492188 -5.03125 0.53125 -6.007812 0.625 -6.9375 C 0.71875 -7.875 0.765625 -8.601562 0.765625 -9.125 C 0.722656 -11.039062 0.6875 -12.96875 0.65625 -14.90625 C 0.632812 -16.84375 0.625 -18.769531 0.625 -20.6875 C 0.582031 -22.320312 0.5625 -23.957031 0.5625 -25.59375 C 0.5625 -27.238281 0.535156 -28.851562 0.484375 -30.4375 C 0.484375 -31.789062 0.457031 -33.097656 0.40625 -34.359375 C 0.363281 -35.628906 0.789062 -36.566406 1.6875 -37.171875 Z M 1.6875 -37.171875 "/></g></g></g></g></g></g></svg>